<?xml version="1.0" encoding="utf-8"?>
<!-- Generator: Adobe Illustrator 22.1.0, SVG Export Plug-In . SVG Version: 6.00 Build 0)  -->
<svg version="1.2" baseProfile="tiny" id="ELEMENTS"
	 xmlns="http://www.w3.org/2000/svg" xmlns:xlink="http://www.w3.org/1999/xlink" x="0px" y="0px" viewBox="0 0 62 84"
	 xml:space="preserve">
<g id="back_2_">
	<path fill="#FFFFFF" d="M57,0H5C2.2,0,0,2.2,0,5v74c0,2.8,2.2,5,5,5h52c2.8,0,5-2.2,5-5V5C62,2.2,59.8,0,57,0L57,0z"/>
</g>
<g id="back_30_">
	<path fill="#AAAAAA" d="M57,0.5c2.5,0,4.5,2,4.5,4.5v74c0,2.5-2,4.5-4.5,4.5H5c-2.5,0-4.5-2-4.5-4.5V5c0-2.5,2-4.5,4.5-4.5H57
		 M57,0H5C2.2,0,0,2.2,0,5v74c0,2.8,2.2,5,5,5h52c2.8,0,5-2.2,5-5V5C62,2.2,59.8,0,57,0L57,0z"/>
</g>
<g id="back_1_">
	<path fill="#FFFFFF" d="M56.6,1.5c2.9,0,3.9,2,3.9,3.9v73.2c0,2.2-1.7,3.9-3.9,3.9H5.4c-2.9,0-3.9-2.1-3.9-3.9V5.4
		c0-2.7,2-3.9,3.9-3.9H56.6 M56.6,0.5H5.4c-2.7,0-4.9,1.8-4.9,4.9v73.2c0,2.4,1.5,4.9,4.9,4.9h51.2c2.7,0,4.9-2.2,4.9-4.9V5.4
		C61.5,2.7,59.8,0.5,56.6,0.5L56.6,0.5z"/>
</g>
<g>
	<path fill="#D71920" d="M7.4,17.8H5.7V7c-0.4,0.4-1,0.8-1.6,1.2S2.9,8.8,2.3,9V7.4c1-0.5,1.8-1,2.5-1.6C5.5,5.1,6,4.5,6.3,3.9h1.1
		V17.8L7.4,17.8z"/>
</g>
<g>
	<path fill="#D71920" d="M9.5,11c0-1.6,0.2-3,0.5-4s0.8-1.8,1.5-2.3C12.1,4.2,13,3.9,14,3.9c0.7,0,1.4,0.1,2,0.5
		c0.6,0.3,1,0.7,1.4,1.3s0.7,1.3,0.9,2.1s0.3,1.9,0.3,3.3c0,1.6-0.2,2.9-0.5,3.9s-0.8,1.8-1.5,2.3c-0.7,0.5-1.5,0.8-2.5,0.8
		c-1.3,0-2.4-0.5-3.1-1.4C9.9,15.5,9.5,13.6,9.5,11z M11.2,11c0,2.3,0.3,3.8,0.8,4.5c0.5,0.7,1.2,1.1,2,1.1s1.4-0.4,2-1.1
		c0.5-0.8,0.8-2.3,0.8-4.5c0-2.3-0.3-3.8-0.8-4.6c-0.5-0.8-1.2-1.1-2-1.1s-1.4,0.3-1.9,1C11.5,7.1,11.2,8.7,11.2,11z"/>
</g>
<path fill="#D71920" d="M31.4,47.3c-4.8-11.2-18.4-8.6-18.5,4.4c0,7.1,6.5,9.8,10.8,12.6c4.2,2.8,7.2,6.5,7.7,8.1
	c0.4-1.6,3.8-5.5,7.7-8.2c4.3-3,10.9-5.5,10.8-12.6C49.8,38.6,36,36.5,31.4,47.3z"/>
<path fill="#D71920" d="M10.9,26.3c-2-4.7-7.7-3.6-7.7,1.8c0,3,2.7,4.1,4.5,5.3s3,2.7,3.2,3.4c0.2-0.7,1.6-2.3,3.2-3.4
	c1.8-1.3,4.5-2.3,4.5-5.3C18.6,22.7,12.8,21.9,10.9,26.3z"/>
</svg>
