<?xml version="1.0" encoding="utf-8"?>
<!-- Generator: Adobe Illustrator 22.1.0, SVG Export Plug-In . SVG Version: 6.00 Build 0)  -->
<svg version="1.2" baseProfile="tiny" id="ELEMENTS"
	 xmlns="http://www.w3.org/2000/svg" xmlns:xlink="http://www.w3.org/1999/xlink" x="0px" y="0px" viewBox="0 0 62 84"
	 xml:space="preserve">
<g id="back_2_">
	<path fill="#FFFFFF" d="M57,0H5C2.2,0,0,2.2,0,5v74c0,2.8,2.2,5,5,5h52c2.8,0,5-2.2,5-5V5C62,2.2,59.8,0,57,0L57,0z"/>
</g>
<g id="back_30_">
	<path fill="#AAAAAA" d="M57,0.5c2.5,0,4.5,2,4.5,4.5v74c0,2.5-2,4.5-4.5,4.5H5c-2.5,0-4.5-2-4.5-4.5V5c0-2.5,2-4.5,4.5-4.5H57
		 M57,0H5C2.2,0,0,2.2,0,5v74c0,2.8,2.2,5,5,5h52c2.8,0,5-2.2,5-5V5C62,2.2,59.8,0,57,0L57,0z"/>
</g>
<g id="back_1_">
	<path fill="#FFFFFF" d="M56.6,1.5c2.9,0,3.9,2,3.9,3.9v73.2c0,2.2-1.7,3.9-3.9,3.9H5.4c-2.9,0-3.9-2.1-3.9-3.9V5.4
		c0-2.7,2-3.9,3.9-3.9H56.6 M56.6,0.5H5.4c-2.7,0-4.9,1.8-4.9,4.9v73.2c0,2.4,1.5,4.9,4.9,4.9h51.2c2.7,0,4.9-2.2,4.9-4.9V5.4
		C61.5,2.7,59.8,0.5,56.6,0.5L56.6,0.5z"/>
</g>
<g>
	<path fill="#D71920" d="M6.6,13.9l1.6-0.2c0,1.1,0.2,1.8,0.6,2.2c0.4,0.4,0.8,0.6,1.5,0.6c0.5,0,0.9-0.1,1.2-0.3
		c0.3-0.2,0.6-0.5,0.7-0.9s0.2-0.9,0.2-1.7V4h1.8v9.4c0,1.2-0.1,2.1-0.4,2.7c-0.3,0.6-0.7,1.1-1.3,1.5S11.1,18,10.3,18
		c-1.2,0-2.1-0.4-2.8-1.1C6.9,16.3,6.6,15.3,6.6,13.9z"/>
</g>
<path fill="#D71920" d="M10.9,26.3c-2-4.7-7.7-3.6-7.7,1.8c0,3,2.7,4.1,4.5,5.3s3,2.7,3.2,3.4c0.2-0.7,1.6-2.3,3.2-3.4
	c1.8-1.3,4.5-2.3,4.5-5.3C18.6,22.7,12.8,21.9,10.9,26.3z"/>
<g>
	<g>
		<g>
			<path fill="none" d="M56.5,81.1H22.8c-1.3,0-2.3-1-2.3-2.3V17.3c0-1.3,1-2.3,2.3-2.3h33.7c1.3,0,2.3,1,2.3,2.3v61.4
				C58.8,80,57.8,81.1,56.5,81.1z"/>
		</g>
		<g>
			<g>
				<path fill="#034EA1" d="M59,69.7v8.9c0,0.1,0,0.2,0,0.3c-0.1,0.7-0.3,1.2-0.8,1.6l-0.1,0.1c-0.2,0.2-0.5,0.4-0.8,0.5
					c-0.1,0-0.2,0.1-0.2,0.1c-0.2,0.1-0.4,0.1-0.6,0.1h-6l0.1-0.2l0.2-0.3l1.4-1.8l0.7-0.9l0.3-0.5l0.1-0.1l5.1-6.8l0.2-0.3l0.3-0.3
					L59,69.7z"/>
			</g>
			<g>
				<path fill="#034EA1" d="M48.7,79.7l-0.1,1v0.6H22.8c-0.7,0-1.3-0.2-1.8-0.7l0,0c-0.1-0.1-0.2-0.2-0.3-0.4v-0.1
					c-0.1-0.1-0.1-0.2-0.2-0.4v-0.1L20.3,79c0-0.1,0-0.1,0-0.2V62l0.2-0.1l0,0l0.1-0.1l0.1-0.1l0.2-0.1l1.2-0.9l0.3-0.3l0.1-0.1l0,0
					l1.3-1l0,0l0.1-0.2L24,59l2.1-1.6l0.3-0.2l0,0l0,0l0.1-0.1l0.1-0.1h0.1l0,0l0,0l0.1-0.1l0.3-0.2l0.1-0.1l0,0l0.1-0.1l1.3-1l0,0
					c0,0,0,0,0.1-0.1l5.9-4.6c0,0,0.1,0,0.1,0.2l0.6,0.6l0.2,0.3c0.6,0.8,1.5,2,2.7,3.6l0.1,0.1l0.1,0.1l0,0
					c0.2,0.3,0.3,0.5,0.6,0.8v0.1c3,4.6,6.9,11.8,9.2,20.9v0.1c0.1,0.2,0.1,0.3,0.2,0.4c0.1,0.2,0.1,0.5,0.2,0.7l0,0
					c0,0.1,0,0.2,0,0.3v0.1C48.6,79.3,48.7,79.5,48.7,79.7z"/>
			</g>
			<g>
				<path fill="#BF0014" d="M59,49.1v17l-0.3,0.3l-0.3,0.3l-2,2.8l-5.8,7.9L49,79.6l-0.1,0.2L49,80c-0.1-0.3-0.2-0.6-0.3-0.9
					s-0.2-0.7-0.4-1l0,0c-0.1-0.2-0.1-0.4-0.2-0.5C44.7,68,42.9,63.9,39,56.7l-0.1-0.1l-0.2-0.4L36,51.3l1.5-1l0.1-0.1l0.6-0.4
					l0.7-0.5l0.4-0.3L59,49.1L59,49.1z"/>
			</g>
			<g>
				<path fill="#FFDA00" d="M59,35.1V34v-0.6v-1.6v-0.6v-1.5v-0.6v-3.3v-0.3c-0.1,0-0.2,0-0.3-0.1c-0.1,0-0.2,0-0.3-0.1
					c-0.5-0.1-0.9-0.2-1.4-0.3c-0.2,0-0.4-0.1-0.6-0.1l0,0c-0.4,0-0.7-0.1-1.1-0.1c0,0-0.1,0-0.2-0.1c-0.1,0-0.1-0.1-0.2-0.1
					c-0.1-0.1-0.2-0.1-0.3-0.1c-0.4-0.1-0.7-0.2-1-0.3c-0.1,0-0.2-0.1-0.4-0.1l0,0c-1.3-0.4-2.3-0.4-3.1-0.2c-0.1,0-0.1,0-0.2,0l0,0
					c-0.3,0.1-0.5,0.2-0.7,0.4c-0.1,0.1-0.2,0.2-0.3,0.3l-0.1,0.1l0,0l0,0c-1.1,1.5-0.3,4.1-0.3,5c0,5,5.8,6.8,7.1,7.1
					c0.2,0,0.3,0.1,0.3,0.1l0,0c-0.4,2-1.1,3.9-1.8,5.6c-0.1,0.3-0.2,0.5-0.3,0.7c-0.8,1.7-1.5,2.9-1.8,3.5
					c-0.1,0.2-0.2,0.3-0.2,0.3h0.5h6h0.3H59l0,0l0,0V35.7V35.1z"/>
			</g>
			<g>
				<path fill="#3F1000" d="M59,47.3v2h-0.3h-0.3L51,49.2h-1l0,0h-2.8c0,0,0.1,0,0.2-0.1c0.5-0.3,1.4-1.3,1.6-1.8c0,0,1.1,0,2.6,0
					C51.6,47.3,59,47.3,59,47.3z"/>
			</g>
			<g>
				<path fill="#FFDA00" d="M44.3,72.2c0,0,0.4,1.4-0.6,1.9c0,0-0.3,0.5,0.2,0.3s1.1-0.8,1-1.8c0,0-0.2-0.5-0.5-0.5
					C44.1,72.1,44.3,72.2,44.3,72.2L44.3,72.2z"/>
			</g>
			<g>
				<path fill="#FFDA00" d="M42.5,64.9c0,0,0,0.4,0.2,0.5s0.5,1.2,0,1.4c-0.5,0.2-0.8-0.4-0.8-1C41.8,65.3,42.1,64.7,42.5,64.9
					L42.5,64.9z"/>
			</g>
			<g>
				<path fill="#FFDA00" d="M39,65.1c0,0-0.6,0.2,0,1s2.1,2.5,2.9,2.5c0.8,0.1,1.4,0.2,1.4-0.2s0.7-0.1,0.5,0.5
					c-0.2,0.7-0.2,0.7-0.5,0.8s2,1.1,2.1,2.7c0.1,1.5,0,1.9,0,1.9s0.5,0.2,0.6,0.2s-0.3,0.7-1,0.7s-0.9,0-0.9,0s-1.4,1.3-3,0
					s-0.6-2.7-0.2-2.8c0.3-0.1,0.3,0.2,0.4,0.5c0.1,0.3,1.3,1.6,2-0.1c0,0-0.7,0-0.3-0.6s0-1.2-0.6-1.6s-2.2-1.9-2.5-2.1
					s-1.8-1.5-1.8-2.7s0-1.7,0.6-1.8C39.3,64,39.2,64.7,39,65.1L39,65.1z"/>
			</g>
			<g>
				<path fill="#FFDA00" d="M37.4,63.2c0,0-0.2,0,0,0.7c0.1,0.7,0.7,0.3,0.8-0.6s-0.1-1-0.4-1C37.4,62.2,37.4,63.2,37.4,63.2
					L37.4,63.2z"/>
			</g>
			<g>
				<path fill="#FFDA00" d="M35.1,57.5c0,0-0.8-0.6,0.2-1c0.9-0.4,1.2,0,1.4,0.3s0.5,1.3,0.7,0s-0.3-1.9-1.2-2.1
					c-0.9-0.2-2.3,0.2-2.9,0.7c-0.5,0.4-1,0.3-1,0.3s-0.6,0.4,0,0.6c0.7,0.2,0.3,1.2,0.6,1.7s1.2,2.2,2.2,2.4c0,0,0.3,0,0,0.4
					s0,1.1,0.7,0.8s1.5-0.2,2,0.1s2,1.1,2.3,1.7c0.4,0.6,0.5,0.9,0.3,1.3s-0.1,1.4,0.5,0.8c0.5-0.6,0.7-1.7,0-2.6
					c-0.8-0.9-3.3-2.4-3.7-2.5c0,0-2-1.4-2-1.8s0-0.6,0.2-0.8C35.6,57.4,35.3,57.4,35.1,57.5L35.1,57.5z"/>
			</g>
			<g>
				<path fill="#FFDA00" d="M34.5,56c0,0-0.6,0.9-0.5,1.3c0.2,0.4,0.1,0.8-0.3,0.5c-0.3-0.2-0.7-1.3,0.1-1.8S34.5,56,34.5,56
					L34.5,56z"/>
			</g>
			<g>
				<path fill="#FFDA00" d="M33.7,52.5c0-0.2,0.5-0.3,0.7-0.2c0.2,0,0.4,0.4,0.8,1.1c0.4,0.8-0.5,0.1-0.6,0.3c0,0.3-0.6,0.8-0.6,0.8
					c-1.4,0.8-2.8-0.3-2.8-0.3l0.9-0.8c0,0,0.5,0.4,1.2,0.3C34,53.7,33.7,52.5,33.7,52.5z"/>
			</g>
			<g>
				<path fill="#FFDA00" d="M43.1,78.3l1.3,0.1c0,0,0.5-0.9,1-0.5s0.5,0.5,0.5,0.6s1.4-0.1,1.4-0.1s-0.1-2.3-1.5-2.4
					c-1.4-0.2-2.3,0.6-2.5,0.9C42.9,77.4,43.1,78.3,43.1,78.3z"/>
			</g>
			<g>
				<path fill="#FFDA00" d="M28.6,55.4c0,0,8.6,11.8,10.3,19l1.2-0.5c0,0-5.5-14.5-10.5-19.1C29.2,55,28.6,55.4,28.6,55.4z"/>
			</g>
			<g>
				<path fill="#FFDA00" d="M34.4,70c1.8,0,3.2,1.4,3.2,3.2c0,1.8-1.4,3.2-3.2,3.2s-3.2-1.4-3.2-3.2C31.2,71.5,32.7,70,34.4,70
					L34.4,70z"/>
			</g>
			<g>
				<path fill="#FFDA00" d="M34.5,72.1c-0.7,0-1.2,0.6-1.2,1.2c0,0.7,0.6,1.2,1.2,1.2c0.7,0,1.2-0.6,1.2-1.2
					C35.7,72.6,35.2,72.1,34.5,72.1L34.5,72.1z"/>
			</g>
			<g>
				<path fill="#FFDA00" d="M31.7,63.5c1.6,0,2.9,1.3,2.9,2.9s-1.3,2.9-2.9,2.9s-2.9-1.3-2.9-2.9C28.8,64.8,30.1,63.5,31.7,63.5
					L31.7,63.5z"/>
			</g>
			<g>
				<path fill="#FFDA00" d="M31.8,65.4c-0.6,0-1.1,0.5-1.1,1.1s0.5,1.1,1.1,1.1c0.6,0,1.1-0.5,1.1-1.1S32.4,65.4,31.8,65.4
					L31.8,65.4z"/>
			</g>
			<g>
				<path fill="#FFDA00" d="M27.6,56.2l-3.8,3c0,0,0,0.1,0,0.2c0,1.8,1.4,3.2,3.2,3.2c1.8,0,3.2-1.4,3.2-3.2
					C30.2,57.8,29.1,56.5,27.6,56.2L27.6,56.2z"/>
			</g>
			<g>
				<circle fill="#FFDA00" cx="27.1" cy="59.4" r="1.2"/>
			</g>
			<g>
				<path fill="#FFDA00" d="M30.9,80.1c-0.2,0.2-0.4,0.4-0.6,0.7l-0.1,0.1c-0.1,0-0.2,0.1-0.2,0.2c-0.1,0.1-0.1,0.1-0.1,0.2h-1.5
					c0-0.1,0.1-0.1,0.1-0.2c0.1-0.1,0.1-0.2,0.2-0.3c0.6-0.7,1.2-1.4,1.8-2L30.9,80.1z"/>
			</g>
			<g>
				<path fill="#FFDA00" d="M40.3,75.7c-3,1.1-5.6,2.8-7.8,5.1c-0.1,0.1-0.2,0.2-0.2,0.3c-0.1,0.1-0.1,0.1-0.2,0.2h-1.3
					c0-0.1,0.1-0.1,0.1-0.2c0.1-0.1,0.1-0.2,0.2-0.3c2.4-2.7,5.5-4.8,8.9-6L40.3,75.7z"/>
			</g>
			<g>
				<path fill="#FFDA00" d="M35.2,81C35.2,81,35.2,81.1,35.2,81c-0.1,0.2-0.1,0.3-0.1,0.3h-2l0.2-0.2l0.1-0.1
					c0.1-0.1,0.1-0.1,0.2-0.2l0.1-0.1c0.2-0.2,0.5-0.4,0.7-0.6c0.2,0.2,0.4,0.4,0.6,0.6v0.1C35.1,80.9,35.1,80.9,35.2,81z"/>
			</g>
			<g>
				<path fill="#FFDA00" d="M38.9,80.2c1.4,0,2.6-1.2,2.6-2.6c0-0.7-0.3-1.3-0.7-1.8c-0.8,0.4-2.4,1.3-4.3,2.7
					C36.8,79.5,37.8,80.2,38.9,80.2z"/>
			</g>
			<g>
				<path fill="#034EA1" d="M20.7,61.4l-0.1,0.2l-0.1,0.2v0.1l-0.2,0.3v-1.5c0.1,0.1,0.1,0.2,0.2,0.3l0.1,0.1
					C20.6,61.3,20.6,61.4,20.7,61.4z"/>
				<path fill="#034EA1" d="M24,58.9C24,59,24,59,24,58.9L24,58.9L24,58.9l-0.1,0.5l-0.1-0.2l0,0v-0.1L23,57.9
					c0-1.3-1.5-2.1-1.8-2.6c-0.1-0.1-0.2-0.2-0.3-0.3c-0.1,0-0.2-0.1-0.3-0.1c-0.1,0-0.2,0-0.3,0v-0.5c0.1,0,0.2,0,0.3,0
					c0.1,0,0.2,0,0.3,0.1c1.5,0.5,2.5,2.1,2.5,2.3C23.1,57.1,23.8,58.6,24,58.9z"/>
				<path fill="#034EA1" d="M30.9,48c0.1,0.3-0.8,2.6-0.8,2.6c-2.2,3.2-8.4,2.2-9.3,2.4h-0.1c0,0,0,0-0.1,0.1h-0.1
					c-0.1,0-0.1,0.1-0.2,0.1v-3.7c0.1,0,0.1,0,0.2-0.1h0.1h0.1c0.1,0,0.1-0.1,0.2-0.1c1.8-0.6,4.6-0.4,5.7-0.4
					c1.4,0,2.7-0.6,3.1-0.8C29.9,47.9,30.8,47.7,30.9,48z"/>
			</g>
			<g>
				<path fill="#BF0014" d="M28.5,50.9c-2.2,1.9-6.7,1.1-7.5,1.3c-0.1,0-0.2,0-0.3,0.1c-0.1,0-0.1,0-0.2,0.1h-0.1h-0.1v-1.7
					c0,0,0.1,0,0.1-0.1c0,0,0.1,0,0.1-0.1c0.1,0,0.1-0.1,0.2-0.1c1.3-0.8,3-0.6,4-0.6C27,49.9,32.1,47.6,28.5,50.9z"/>
			</g>
			<g>
				<path fill="#FFDA00" d="M25.6,52.5c0,0-3.3,0.1-3.9-0.1c-0.2-0.1-0.6,0-1,0.2c-0.1,0-0.1,0.1-0.2,0.1h-0.1h-0.1v-0.9h0.1h0.1
					c0.1,0,0.1-0.1,0.2-0.1c0.3-0.1,0.5-0.1,0.8-0.1c1.2,0,5.3,0.2,6-0.8c0,0-4.5-0.5-6-0.1c-0.3,0.1-0.6,0.2-0.8,0.3
					c-0.1,0-0.1,0-0.2,0.1h-0.1h-0.1v-0.8h0.1h0.1c0.1,0,0.1-0.1,0.2-0.1c1.5-0.6,2.6-0.6,2.8-0.6s4.6-0.2,6.3-0.9
					C29.8,48.7,30.5,51.5,25.6,52.5z"/>
			</g>
			<g>
				<path d="M28.8,74.7c-2.3,2-4.2,4.1-5.6,6.1C23.1,80.9,23,81,23,81.1s0,0.1-0.1,0.2h-0.1c-0.7,0-1.3-0.2-1.8-0.7l0.1-0.1v-0.1
					c0-0.1,0.1-0.1,0.1-0.1s0-0.1,0.1-0.1c3.4-6,4.3-11.2,4.3-11.2L28.8,74.7z"/>
			</g>
			<g>
				<polygon fill="#FFDA00" points="59,49.1 59,56.7 39.1,56.7 38.7,56.2 38.2,55.5 35.3,51.5 35.2,51.4 35.2,51.4 36.2,50.7 
					37.5,49.8 37.6,49.7 37.7,49.6 38.2,49.5 38.9,49.4 40.5,49.1 				"/>
			</g>
			<g>
				<polygon fill="#FFDA00" points="59,66.2 59,70.1 58.5,70.7 53.3,77.5 52.8,78.1 52.1,79 51.7,79.5 50.5,79.6 49.2,79.7 
					49.2,79.7 49,79.7 49.5,79.1 50.6,77.5 56.6,69.6 58.5,66.9 58.8,66.6 				"/>
			</g>
			<g>
				<path fill="#BF0014" d="M59,77.6v1c0,0.1,0,0.2,0,0.3c-0.1,0.7-0.3,1.2-0.8,1.6l-0.1,0.1c-0.2,0.2-0.5,0.4-0.8,0.5
					c-0.1,0-0.2,0.1-0.2,0.1c-0.2,0.1-0.4,0.1-0.6,0.1H41.1v-0.5l1.4-3.2H59z"/>
			</g>
			<g>
				<polygon fill="#FFFFFF" points="46.1,79.1 45.1,80.8 45,81.1 44.9,81.3 43.2,81.3 43.3,81.1 43.5,80.8 44.4,79.1 				"/>
			</g>
			<g>
				<polygon fill="#FFFFFF" points="49.5,79.1 49.2,79.7 49.1,79.9 48.6,80.8 48.4,81.1 48.3,81.3 46.6,81.3 46.7,81.1 46.8,80.8 
					47.8,79.1 				"/>
			</g>
			<g>
				<polygon fill="#FFFFFF" points="52.5,79 51.5,80.8 51.3,81.1 51.2,81.3 49.5,81.3 49.6,81.1 49.8,80.8 50.5,79.6 50.8,79 				
					"/>
			</g>
			<g>
				<polygon fill="#FFFFFF" points="55.7,79 54.7,80.8 54.6,81.1 54.5,81.3 52.7,81.3 52.9,81.1 53,80.8 54,79 				"/>
			</g>
			<g>
				<path fill="#FFFFFF" d="M58.1,80.6c-0.2,0.2-0.5,0.4-0.8,0.5l0.1-0.1l0.1-0.1l0.1-0.3H58.1z"/>
			</g>
			<g>
				<path fill="#FFDA00" d="M26.2,67.7c0,0,2.8,5.3,3,6.3L29,74.4L25.7,68L26.2,67.7z"/>
			</g>
			<g>
				<path fill="#EC1C24" d="M59,17.3v8.2h-0.6c-0.5-0.1-0.9-0.2-1.4-0.2c-0.1,0-0.2,0-0.3-0.1c-0.1,0-0.2,0-0.2,0
					c-0.4-0.1-0.9-0.1-1.3-0.2h-0.5h-0.1c-0.3,0-0.6-0.1-0.9-0.1c-0.3,0-0.6-0.1-0.9-0.1l0,0c-0.1,0-0.3,0-0.4,0h-0.1
					c-0.5,0-1-0.1-1.4-0.1h-2.6c-6.1,0.1-10.6,1.2-11.7,1.5c-0.2,0.1-0.3,0.1-0.3,0.1L36,25.9l-0.3-0.5l0,0l-6.2-9.9V15l-0.1-0.2
					h27.5c0.7,0.1,1.3,0.5,1.7,1.1c0,0.1,0.1,0.2,0.2,0.3c0,0.1,0.1,0.1,0.1,0.2s0,0.1,0.1,0.2l0,0c0,0,0,0.1,0,0.2s0,0.1,0,0.2
					C59,17.1,59,17.2,59,17.3z"/>
				<path fill="#034EA1" d="M59,25.3v0.8h-0.3C58.6,26,58.5,26,58.4,26c-0.5-0.1-0.9-0.2-1.4-0.3c-0.2,0-0.3-0.1-0.5-0.1
					c0,0,0,0-0.1,0c-0.5-0.1-0.9-0.2-1.3-0.2c0,0-0.1,0-0.1-0.1c-0.2,0-0.3,0-0.5,0c-0.5-0.1-1-0.2-1.5-0.2l0,0h-0.7
					c-0.5-0.1-1-0.1-1.5-0.1h-2.6c-6.1,0.1-10.6,1.2-11.6,1.5h-0.1c-0.1,0-0.1,0-0.1,0l-0.3,0.1l-0.2-0.4l0,0l-0.2-0.3l-6.6-10.6
					L29,15l-0.1-0.2h0.9l0.1,0.2l0.1,0.2l0.1,0.1l6.2,9.9l0.2,0.3l0.1,0.1c1.2-0.3,6.1-1.5,12.6-1.5h1c1.1,0,2.2,0.1,3.3,0.2h0.4
					c0.1,0,0.1,0,0.2,0l0,0c1.4,0.2,2.9,0.4,4.4,0.7h0.1h0.3C58.9,25,59,25.1,59,25.3z"/>
			</g>
			<g>
				<path fill="#FFFFFF" d="M59,21.9v-0.1V21.9z"/>
			</g>
			<g>
				<path fill="#FFFFFF" d="M43.5,21.2l-1.2,0.2c0,0-0.2-1.5-2.4-1.7S37.7,22,37.7,22l-0.9,0.3l-4-7L32.6,15l-0.1-0.2h2.6l0.1,0.2
					l0.1,0.2v0.1l2,3.7c0,0,0.7-1.2,2.8-0.8l-1-2.9v-0.1V15L39,14.8h2.2l0.1,0.2l0.1,0.3L43.5,21.2z"/>
			</g>
			<g>
				<path fill="#FFFFFF" d="M56.9,14.8L56.8,15l0,0l-0.1,0.2v0.1L55,21.5h-2.2c-0.1-0.1-0.4-2.1-2.2-2.4c-1.8-0.4-2.3,2-2.3,2h-2.1
					l-1-5.8v-0.5H47v0.5l0.5,3.5c0,0,2-1.2,3.3-0.9c0,0,2.1,0.4,2.8,1.6l1.2-4.2l0.1-0.3v-0.2H56.9z"/>
			</g>
			<g>
				<polygon fill="#EC1C24" points="59,50.7 59,55.4 39.3,55.4 36.1,51.3 36.7,50.9 37.4,50.9 38.2,50.9 47.9,50.8 48.7,50.8 
					49.2,50.8 58.5,50.7 				"/>
			</g>
			<g>
				<polygon fill="#EC1C24" points="42.3,54.5 46.8,51.2 52.1,51.2 47.7,54.5 				"/>
			</g>
			<g>
				<polygon fill="#EC1C24" points="59,51.2 59,52.7 58.5,53 56.6,54.5 51.2,54.5 55.7,51.2 				"/>
			</g>
			<g>
				<path fill="#FFDA00" d="M22.4,60.2l-0.1,0.1c0,0.1-0.1,0.2-0.3,0.3c6.9,7.7,9.4,18.6,9.4,18.6l0.6-0.1
					C31,71,23.7,61.8,22.4,60.2z"/>
			</g>
			<g>
				<path fill="#FFDA00" d="M22.2,65.9c0.2,1,0.3,1.3,0.3,1.3l1.6,0.1l0.3-2.2l-1.8-2.7c0,0-1.5,1.2-1.8,1.2l-0.1,0.2
					C20.5,63.8,22,64.9,22.2,65.9z"/>
			</g>
			<g>
				<polygon fill="#FFDA00" points="21.4,76.1 20.8,77.6 20.3,78.8 20.3,75.1 20.5,75.3 20.8,75.5 				"/>
			</g>
			<g>
				<path fill="#FFDA00" d="M23.4,69.3c0,0-0.6,3.6-0.8,3.9c-0.2,0.3-1.4,0.3-1.8,0.3h-0.1c-0.1,0-0.1,0-0.1,0s0-0.1-0.1-0.3
					c-0.1-0.1-0.1-0.3-0.2-0.4v-3.2c0.1,0,0.1,0,0.2-0.1c0.1,0,0.1,0,0.2-0.1h0.1c0.4-0.2,0.8-0.5,1-0.8l0.2-0.2L23.4,69.3z"/>
			</g>
			<g>
				<path fill="#FFDA00" d="M25.6,67.1c0,0-1,5.9-4.7,12.6l0,0c0,0.1-0.1,0.1-0.1,0.2L20.7,80v0.1c-0.1-0.1-0.1-0.2-0.2-0.4v-0.1
					c0-0.1,0.1-0.1,0.1-0.2l0,0c0.1-0.1,0.1-0.2,0.2-0.3c0,0,0,0,0-0.1c0.8-1.5,1.5-3.1,2-4.8c2-7.2,1.8-8.4,1.7-8.6L25.6,67.1z"/>
			</g>
			<g>
				<path fill="#FFDA00" d="M23.7,81.3h-0.5c0-0.1,0-0.1,0.1-0.2l0.1-0.1c0,0,0,0.1,0.1,0.1C23.5,81.2,23.6,81.3,23.7,81.3z"/>
			</g>
			<g>
				<path fill="#FFDA00" d="M29.1,75.9c0-0.3-0.1-0.6-0.2-0.8c-0.8,0.7-1.5,1.4-2.2,2.1c0.3,0.2,0.5,0.3,0.9,0.3
					C28.4,77.4,29.1,76.7,29.1,75.9z"/>
			</g>
			<g>
				<path fill="#FFDA00" d="M26.7,79c0-0.5-0.2-0.9-0.6-1.2c-0.7,0.8-1.4,1.6-2,2.4c0.3,0.3,0.6,0.4,1,0.4
					C26,80.6,26.7,79.9,26.7,79z"/>
			</g>
			<g>
				<polygon fill="#034EA1" points="37.9,49.4 37.7,49.6 37.6,49.7 37.5,49.7 37.4,49.8 36.2,50.7 35.2,51.4 34.2,52.3 34.1,52.3 
					34.1,52.3 33.7,52.5 32.4,53.6 32.4,53.6 31.4,54.3 31.4,54.3 30.1,55.3 29,56 29,56 28.5,56.5 28.5,56.5 23.8,59.9 23.8,59.9 
					22.8,60.7 22.4,61 22.4,61 20.8,62.3 20.7,62.4 20.5,62.5 20.3,62.6 20.3,61.7 20.5,61.5 20.7,61.4 20.8,61.4 23.7,59.1 
					23.8,59 24,58.9 26.4,57.2 26.4,57.2 26.5,57.1 26.6,57 26.7,57 26.7,56.9 26.8,56.9 26.8,56.8 27.1,56.6 27.2,56.5 27.2,56.5 
					27.3,56.4 27.6,56.2 28.6,55.5 28.7,55.5 29.1,55.1 29.1,55.1 29.2,55 34.7,50.9 37.3,48.9 37.4,48.9 37.5,48.8 37.5,48.9 
					37.5,49 				"/>
			</g>
			<g>
				<path fill="none" stroke="#034EA1" stroke-width="0.7211" stroke-miterlimit="2.6131" d="M53.1,44.6"/>
			</g>
			<g>
				<path fill="#FFFFFF" d="M37.5,47.5c0,0,0.1,2.6,0.1,3.2c0,0.5-0.2,2.5,3.6,2.5c6-0.1,9.2-3.7,10.1-5c0.9-1.3-0.6-2.8-0.6-2.8
					L37.5,47.5z"/>
			</g>
			<g>
				<path fill="none" stroke="#034EA1" stroke-width="1.1701" stroke-miterlimit="2.6131" d="M37.7,48.7"/>
			</g>
			<g>
				<path fill="#034EA1" d="M34.6,39.2c-0.1-0.3,0.5-0.6,1-0.4c0.2,0.1,0.7,0.2,1.1,0.9c0.2,0.2,0.3,0.4,0.5,0.3
					c0.5-0.1,0.7-0.3,0.7-0.7c0-0.5-0.4-0.8-0.4-1.2V38l0,0c0.5,0.2,0.9,0.7,0.9,1.3c0,0.3-0.1,0.7-0.4,0.9c-0.3,0.2-0.7,0.3-1,0.3
					c-0.3-0.1-0.3-0.2-0.6-0.4c-0.3-0.3-0.5-0.3-0.7-0.4C35.5,39.6,35,39.6,34.6,39.2C34.5,39.3,34.5,39.3,34.6,39.2L34.6,39.2z"/>
			</g>
			<g>
				
					<ellipse transform="matrix(0.9558 -0.294 0.294 0.9558 -7.9239 13.4878)" fill="#034EA1" cx="40.9" cy="33.1" rx="0.6" ry="0.8"/>
			</g>
			<g>
				<path fill="#034EA1" d="M42.4,32.4L42.4,32.4L42.4,32.4c-0.1-0.3-0.3-0.5-0.6-0.7c-0.4-0.3-0.8-0.4-1.2-0.3
					c-0.2,0-0.5,0.2-0.6,0.3l-0.1,0.1c-0.2,0.2-0.3,0.4-0.4,0.7l0,0l0,0c0,0.1,0,0.2-0.1,0.2v0.7c0.1,0.5,0.4,0.9,0.7,1.1
					c0.3,0.2,0.6,0.3,0.9,0.3h0.3c0.7-0.2,1.2-0.9,1.2-1.6v-0.1c0.1,0,0.1-0.1,0.1-0.2s0-0.1,0-0.2C42.6,32.7,42.5,32.5,42.4,32.4z
					 M42.1,32.9c0,0.1,0,0.1,0,0.2c0.2,0.7-0.2,1.3-0.8,1.5c-0.3,0.1-0.6,0-0.9-0.2c-0.3-0.2-0.5-0.5-0.6-0.9
					c-0.1-0.3,0-0.7,0.1-0.9c0,0,0,0,0-0.1s0.1-0.2,0.1-0.2l0.1-0.1c0.1-0.2,0.3-0.2,0.5-0.3c0.1,0,0.1,0,0.2,0
					c0.2,0,0.5,0.1,0.7,0.2c0.2,0.2,0.4,0.4,0.5,0.7v0.1H42.1z"/>
			</g>
			<g>
				<path fill="#034EA1" d="M35.3,44.6L35.3,44.6c0.2,0,0.6,0.2,0.8,0.2c0.3,0,1.2-0.9,2.1-0.2c0.8,0.6,1.2,1.2,1.5,1.2
					c0.2,0,0.3-0.3,0.6-0.4c0.1,0,0.3,0.6-0.3,0.9c-0.2,0.1-0.9-0.1-1.9-0.5c-0.5-0.2-0.6,0.4-1.3,0.4c0,0-0.1,0-0.2-0.1
					C36.5,45.6,35.3,45.2,35.3,44.6z"/>
			</g>
			<g>
				<path fill="#034EA1" d="M37.4,42.4c0-0.5,0.6-1,1.9-0.7c0.7,0.2,2.5,1.6,3.5,1.1c1-0.4,0.4-1.3,0.1-1.5
					c-0.4-0.2,0.3-0.4,0.7,0.1s0.3,1.3-0.4,1.7s-2.1,0-2.5-0.2s-1.4-0.6-2-0.4C38,42.7,37.4,42.8,37.4,42.4z"/>
			</g>
			<g>
				<path fill="#FFFFFF" d="M39.3,33.3c0,0,0-1.1,0.8-1.1c0.7,0,3.4,1.2,3.6,1.2c0.2,0,0.8-0.2,0.8-0.2s-2.3-2.7-4.3-2.5
					C38,30.9,39.2,33.9,39.3,33.3z"/>
			</g>
			<g>
				<path fill="#034EA1" d="M40.5,31.7c0.8,0.1,2.6,1.1,3.2,1.3c0.3,0.1,0.6,0.3,0.9,0.3c0.7,0,0.7,0.6-0.2,0.6
					c-0.4,0-2.1-0.7-2.5-0.9c-0.5-0.2-1-0.5-1.5-0.5c-0.4,0-0.7,0-1,0.4s-0.2,0.8-0.1,1c0.1,0.4,0,0.5-0.2,0.1
					c-0.1-0.2-0.1-0.4-0.2-0.8C39.1,33.1,39.1,31.7,40.5,31.7z"/>
			</g>
			<g>
				<path fill="#034EA1" d="M39.2,30.9c0,0,0.1-0.1,0.2-0.1c0.8-0.6,1.6-0.4,2.2-0.1c0.7,0.3,1.3,0.7,1.9,1.1l1.7,1.3l0,0
					c0.2,0.1,0.2,0.4,0,0.5s-0.3,0.2-0.5,0l0,0l-1.5-1.4c-0.5-0.5-1-0.8-1.6-1.1c-0.6-0.3-1.4-0.5-1.9-0.2c-0.1,0.1-0.2,0.2-0.3,0.3
					C39.1,31.5,38.8,31.3,39.2,30.9z"/>
			</g>
			<g>
				<path fill="#FFFFFF" d="M41.9,33.2c0,0-0.5-0.3-0.8-0.1c-0.2,0.2,0.2,0.5,0.5,0.5C42,33.6,42,33.2,41.9,33.2z"/>
			</g>
			<g>
				<g>
					<path fill="#034EA1" d="M39.6,27.6c1.9-0.3,4.3,0,5.4,0.6s0.8,0.6-0.8,0.4c-2.4-0.3-4,0.1-5,0.2C38.2,28.8,38.6,27.8,39.6,27.6
						z"/>
				</g>
			</g>
			<g>
				<path fill="#034EA1" d="M58.2,37.4c-3.7,0-6.5-1.1-8.2-3.2c-3.1-3.8-1.7-9.6-1.6-9.9l0.7,0.2c0,0.1-1.4,5.7,1.5,9.2
					c1.6,2.1,4.4,3,8.2,2.9v0.7C58.6,37.4,58.4,37.4,58.2,37.4z"/>
			</g>
			<g>
				<path fill="#034EA1" d="M59,35.1c-0.1,0-0.2,0-0.3,0s-0.2,0-0.3,0c-3-0.2-5.2-1.2-6.5-3c-1.8-2.5-1.3-5.9-1.1-7.2v-0.1
					c0-0.1,0.1-0.3,0.1-0.3v-0.1l-0.6-0.2c0,0,0,0.1-0.1,0.2c0,0.1,0,0.2-0.1,0.3v0.1l0,0c-0.3,1.4-0.7,4.9,1.2,7.5
					c1.4,1.9,3.7,3,7,3.2c0.1,0,0.2,0,0.3,0s0.2,0,0.3,0L59,35.1L59,35.1z"/>
			</g>
			<g>
				<path fill="#034EA1" d="M59,33.4V34c-0.1,0-0.1,0-0.2,0c0,0,0,0-0.1,0s-0.2,0-0.3,0c-1.8-0.3-5.2-1.1-6-4.7
					c-0.5-1.8-0.2-3.4-0.1-4.2V25c0-0.2,0.1-0.3,0.1-0.3l0.6,0.2c0,0,0,0.1,0,0.2c0,0,0,0,0,0.1c-0.1,0.6-0.4,2.3,0.1,4
					c0.7,3.2,3.7,3.9,5.5,4.3c0.1,0,0.2,0,0.3,0.1C58.9,33.3,58.9,33.4,59,33.4L59,33.4z"/>
			</g>
			<g>
				<path fill="#EC1C24" stroke="#034EA1" stroke-width="0.585" stroke-miterlimit="2.6131" d="M54.7,44.6"/>
			</g>
			<g>
				<path fill="#EC1C24" stroke="#034EA1" stroke-width="0.585" stroke-miterlimit="2.6131" d="M55.4,37.7"/>
			</g>
			<g>
				<path fill="#EC1C24" stroke="#034EA1" stroke-width="0.585" stroke-miterlimit="2.6131" d="M56.9,45.2"/>
			</g>
			<g>
				<path fill="#EC1C24" stroke="#034EA1" stroke-width="0.585" stroke-miterlimit="2.6131" d="M57.2,37"/>
			</g>
			<g>
				<path fill="#034EA1" d="M59,31.2v0.6c-0.1,0-0.2,0-0.3,0s-0.2,0-0.3,0c-0.8-0.1-2.1-0.5-3.1-1.5c-1.5-1.6-1.1-4-0.8-5
					c0-0.2,0.1-0.3,0.1-0.4v-0.1l0,0l0.5,0.2l0,0l0,0l0,0c0,0.1,0,0.2-0.1,0.3c-0.2,0.9-0.7,3.1,0.7,4.5c0.8,0.9,1.9,1.2,2.6,1.3
					c0.1,0,0.2,0,0.3,0C58.9,31.2,59,31.2,59,31.2z"/>
			</g>
			<g>
				<path fill="#034EA1" d="M59,29.2c-0.1,0-0.2,0-0.3-0.1c-0.1,0-0.2-0.1-0.3-0.1c-0.4-0.2-0.7-0.4-0.9-0.8
					c-0.6-0.9-0.5-2.1-0.5-2.7c0-0.1,0-0.2,0-0.3v-0.1L56.7,25l0,0h-0.2l0,0c0,0,0,0,0,0.1l0,0c0,0.1,0,0.2,0,0.3
					c-0.1,0.7-0.1,2,0.6,3.1c0.3,0.5,0.8,0.9,1.4,1.1c0.1,0,0.2,0.1,0.3,0.1s0.2,0,0.2,0.1v-0.1V29.2z"/>
			</g>
			<g>
				<path fill="#034EA1" d="M40.7,53.7c-1,0-1.7-0.2-2.3-0.6c-1.1-0.8-1-2.1-1-2.2c0-0.8,0-1.7,0-2c0,0-0.1-0.1-0.2-0.2
					c-0.5-0.4-1.2-1-1.2-1.8c0-0.6-0.2-1-0.5-1.5c-0.4-0.6-0.4-0.8-0.3-1.3c0-0.1,0.1-0.3,0.1-0.5v-0.3c0-0.6,0-1-0.3-1.6
					c-0.4-0.6-2.1-1.7-2.8-2.1l-0.1-0.1c-1-1-0.1-2.5-0.1-2.5c1-1.7,2.8-5,3-5.3c1.5-2.4,0.8-5.9,0.8-6l-0.1-0.3l0.3-0.1
					c0.1,0,7.8-2.4,17.7-1.3l-0.1,0.7c-8.7-1-15.6,0.8-17.1,1.2c0.2,1,0.5,4-0.9,6.1c-0.2,0.4-2.9,5.1-3,5.3c0,0-0.6,1-0.1,1.6
					c0.4,0.2,2.5,1.5,3,2.3s0.5,1.3,0.5,2v0.3c0,0.3-0.1,0.4-0.1,0.6c-0.1,0.4-0.1,0.4,0.1,0.7c0.5,0.6,0.7,1.2,0.7,1.9
					c0,0.4,0.6,0.9,0.9,1.2c0.1,0.1,0.2,0.2,0.3,0.2c0.3,0.4,0.3,1.6,0.2,2.5c0,0.1-0.1,1,0.7,1.5c0.9,0.7,3.1,1,8.4-1.4
					c5.9-2.9,8-10.9,8.6-14.1l0.7,0.1c-0.7,3.4-2.8,11.6-9,14.7C44.7,53.1,42.4,53.7,40.7,53.7z"/>
			</g>
			<g>
				<rect x="54" y="42.8" fill="#034EA1" width="0.6" height="4.5"/>
			</g>
			<g>
				<rect x="56.1" y="37" fill="#034EA1" width="0.6" height="10.3"/>
			</g>
			<g>
				<rect x="52" y="47" fill="#034EA1" width="7" height="0.6"/>
			</g>
		</g>
	</g>
	<g>
		<g id="SVGID_1_">
			<path fill="#05509E" d="M20.7,53L20.7,53c-0.1,0-0.1,0-0.2,0.1v1.3c0.1,0,0.1,0,0.2,0c0,0,0.1,0,0.1,0.1v-0.1L20.7,53z M20.7,53
				L20.7,53c-0.1,0-0.1,0-0.2,0.1v1.3c0.1,0,0.1,0,0.2,0c0,0,0.1,0,0.1,0.1v-0.1L20.7,53z M20.7,53L20.7,53c-0.1,0-0.1,0-0.2,0.1
				v1.3c0.1,0,0.1,0,0.2,0c0,0,0.1,0,0.1,0.1v-0.1L20.7,53z M20.7,53L20.7,53c-0.1,0-0.1,0-0.2,0.1v1.3c0.1,0,0.1,0,0.2,0
				c0,0,0.1,0,0.1,0.1v-0.1L20.7,53z M20.7,53L20.7,53c-0.1,0-0.1,0-0.2,0.1v1.3c0.1,0,0.1,0,0.2,0c0,0,0.1,0,0.1,0.1v-0.1L20.7,53z
				 M20.7,53L20.7,53c-0.1,0-0.1,0-0.2,0.1v1.3c0.1,0,0.1,0,0.2,0c0,0,0.1,0,0.1,0.1v-0.1L20.7,53z M20.7,53L20.7,53
				c-0.1,0-0.1,0-0.2,0.1v1.3c0.1,0,0.1,0,0.2,0c0,0,0.1,0,0.1,0.1v-0.1L20.7,53z M20.7,53L20.7,53c-0.1,0-0.1,0-0.2,0.1v1.3
				c0.1,0,0.1,0,0.2,0c0,0,0.1,0,0.1,0.1v-0.1L20.7,53z M20.7,53L20.7,53c-0.1,0-0.1,0-0.2,0.1v1.3c0.1,0,0.1,0,0.2,0
				c0,0,0.1,0,0.1,0.1v-0.1L20.7,53z M20.7,53L20.7,53c-0.1,0-0.1,0-0.2,0.1v1.3c0.1,0,0.1,0,0.2,0c0,0,0.1,0,0.1,0.1v-0.1L20.7,53z
				 M20.7,53L20.7,53c-0.1,0-0.1,0-0.2,0.1v1.3c0.1,0,0.1,0,0.2,0c0,0,0.1,0,0.1,0.1v-0.1L20.7,53z M20.7,53L20.7,53
				c-0.1,0-0.1,0-0.2,0.1v1.3c0.1,0,0.1,0,0.2,0c0,0,0.1,0,0.1,0.1v-0.1L20.7,53z M20.6,61.6l-0.1,0.2v0.1l0.1-0.1l0.1-0.1v-0.3
				L20.6,61.6z M20.6,61.6l-0.1,0.2v0.1l0.1-0.1l0.1-0.1v-0.3L20.6,61.6z M20.6,61.6l-0.1,0.2v0.1l0.1-0.1l0.1-0.1v-0.3L20.6,61.6z
				 M20.6,61.6l-0.1,0.2v0.1l0.1-0.1l0.1-0.1v-0.3L20.6,61.6z M20.6,61.6l-0.1,0.2v0.1l0.1-0.1l0.1-0.1v-0.3L20.6,61.6z M20.6,61.6
				l-0.1,0.2v0.1l0.1-0.1l0.1-0.1v-0.3L20.6,61.6z M20.6,61.6l-0.1,0.2v0.1l0.1-0.1l0.1-0.1v-0.3L20.6,61.6z M20.6,61.6l-0.1,0.2
				v0.1l0.1-0.1l0.1-0.1v-0.3L20.6,61.6z M20.6,61.6l-0.1,0.2v0.1l0.1-0.1l0.1-0.1v-0.3L20.6,61.6z M20.6,61.6l-0.1,0.2v0.1l0.1-0.1
				l0.1-0.1v-0.3L20.6,61.6z M20.6,61.6l-0.1,0.2v0.1l0.1-0.1l0.1-0.1v-0.3L20.6,61.6z M20.6,61.6l-0.1,0.2v0.1l0.1-0.1l0.1-0.1
				v-0.3L20.6,61.6z M20.6,61.6l-0.1,0.2v0.1l0.1-0.1l0.1-0.1v-0.3L20.6,61.6z M20.6,61.6l-0.1,0.2v0.1l0.1-0.1l0.1-0.1v-0.3
				L20.6,61.6z M20.6,61.6l-0.1,0.2v0.1l0.1-0.1l0.1-0.1v-0.3L20.6,61.6z M20.6,61.6l-0.1,0.2v0.1l0.1-0.1l0.1-0.1v-0.3L20.6,61.6z
				 M59,17c0-0.1,0-0.1,0-0.2c0,0,0-0.1,0-0.2l0,0c0-0.1,0-0.1-0.1-0.2c0-0.1-0.1-0.1-0.1-0.2s-0.1-0.2-0.2-0.3
				c-0.4-0.6-1-1-1.7-1.1H22.8c-1.4,0-2.5,1.1-2.5,2.5v61.5c0,0.1,0,0.1,0,0.2l0.2,0.6v0.1c0.1,0.2,0.1,0.3,0.2,0.4v0.1
				c0.1,0.2,0.2,0.3,0.3,0.4l0,0c0.5,0.5,1.1,0.7,1.8,0.7h33.7c0.2,0,0.4,0,0.6-0.1c0.1,0,0.2,0,0.2-0.1c0.3-0.1,0.5-0.3,0.8-0.5
				l0.1-0.1c0.4-0.4,0.7-1,0.8-1.6c0-0.1,0-0.2,0-0.3V17.3C59,17.2,59,17.1,59,17z M58.4,78.7L58.4,78.7c0.1,1.2-0.8,2.1-1.9,2.1
				H22.8c-0.6,0-1.1-0.3-1.5-0.6c0,0-0.1,0-0.1-0.1c-0.1-0.1-0.2-0.3-0.3-0.4c0,0,0,0,0-0.1c-0.1-0.1-0.1-0.3-0.1-0.4s0-0.1-0.1-0.2
				V54.4c0,0,0.1,0,0.1,0.1v-0.1L20.7,53V17.3c0-1.2,0.9-2,2-2h33.7c0.1,0,0.2,0,0.2,0h0.1c1,0.1,1.7,1,1.7,2V78.7z M20.6,61.6
				l-0.1,0.2v0.1l0.1-0.1l0.1-0.1v-0.3L20.6,61.6z M20.6,61.6l-0.1,0.2v0.1l0.1-0.1l0.1-0.1v-0.3L20.6,61.6z M20.6,61.6l-0.1,0.2
				v0.1l0.1-0.1l0.1-0.1v-0.3L20.6,61.6z M20.6,61.6l-0.1,0.2v0.1l0.1-0.1l0.1-0.1v-0.3L20.6,61.6z M20.6,61.6l-0.1,0.2v0.1l0.1-0.1
				l0.1-0.1v-0.3L20.6,61.6z M20.6,61.6l-0.1,0.2v0.1l0.1-0.1l0.1-0.1v-0.3L20.6,61.6z M20.6,61.6l-0.1,0.2v0.1l0.1-0.1l0.1-0.1
				v-0.3L20.6,61.6z M20.6,61.6l-0.1,0.2v0.1l0.1-0.1l0.1-0.1v-0.3L20.6,61.6z M20.6,61.6l-0.1,0.2v0.1l0.1-0.1l0.1-0.1v-0.3
				L20.6,61.6z M20.6,61.6l-0.1,0.2v0.1l0.1-0.1l0.1-0.1v-0.3L20.6,61.6z M20.6,61.6l-0.1,0.2v0.1l0.1-0.1l0.1-0.1v-0.3L20.6,61.6z
				 M20.6,61.6l-0.1,0.2v0.1l0.1-0.1l0.1-0.1v-0.3L20.6,61.6z M20.6,61.6l-0.1,0.2v0.1l0.1-0.1l0.1-0.1v-0.3L20.6,61.6z M20.6,61.6
				l-0.1,0.2v0.1l0.1-0.1l0.1-0.1v-0.3L20.6,61.6z M20.6,61.6l-0.1,0.2v0.1l0.1-0.1l0.1-0.1v-0.3L20.6,61.6z M20.6,61.6l-0.1,0.2
				v0.1l0.1-0.1l0.1-0.1v-0.3L20.6,61.6z M20.7,53v1.4c0,0,0.1,0,0.1,0.1v-0.1L20.7,53z M20.7,53L20.7,53c-0.1,0-0.1,0-0.2,0.1v1.3
				c0.1,0,0.1,0,0.2,0c0,0,0.1,0,0.1,0.1v-0.1L20.7,53z M20.7,53L20.7,53c-0.1,0-0.1,0-0.2,0.1v1.3c0.1,0,0.1,0,0.2,0
				c0,0,0.1,0,0.1,0.1v-0.1L20.7,53z M20.7,53L20.7,53c-0.1,0-0.1,0-0.2,0.1v1.3c0.1,0,0.1,0,0.2,0c0,0,0.1,0,0.1,0.1v-0.1L20.7,53z
				 M20.7,53L20.7,53c-0.1,0-0.1,0-0.2,0.1v1.3c0.1,0,0.1,0,0.2,0c0,0,0.1,0,0.1,0.1v-0.1L20.7,53z M20.7,53L20.7,53
				c-0.1,0-0.1,0-0.2,0.1v1.3c0.1,0,0.1,0,0.2,0c0,0,0.1,0,0.1,0.1v-0.1L20.7,53z M20.7,53L20.7,53c-0.1,0-0.1,0-0.2,0.1v1.3
				c0.1,0,0.1,0,0.2,0c0,0,0.1,0,0.1,0.1v-0.1L20.7,53z M20.7,53L20.7,53c-0.1,0-0.1,0-0.2,0.1v1.3c0.1,0,0.1,0,0.2,0
				c0,0,0.1,0,0.1,0.1v-0.1L20.7,53z M20.7,53L20.7,53c-0.1,0-0.1,0-0.2,0.1v1.3c0.1,0,0.1,0,0.2,0c0,0,0.1,0,0.1,0.1v-0.1L20.7,53z
				 M20.7,53L20.7,53c-0.1,0-0.1,0-0.2,0.1v1.3c0.1,0,0.1,0,0.2,0c0,0,0.1,0,0.1,0.1v-0.1L20.7,53z M20.7,53L20.7,53
				c-0.1,0-0.1,0-0.2,0.1v1.3c0.1,0,0.1,0,0.2,0c0,0,0.1,0,0.1,0.1v-0.1L20.7,53z M20.7,53L20.7,53c-0.1,0-0.1,0-0.2,0.1v1.3
				c0.1,0,0.1,0,0.2,0c0,0,0.1,0,0.1,0.1v-0.1L20.7,53z M20.7,53L20.7,53c-0.1,0-0.1,0-0.2,0.1v1.3c0.1,0,0.1,0,0.2,0
				c0,0,0.1,0,0.1,0.1v-0.1L20.7,53z"/>
		</g>
	</g>
</g>
</svg>
